<svg width="1400" height="760" viewBox="0 0 1400 760" fill="none" xmlns="http://www.w3.org/2000/svg">
  <defs>
    <linearGradient id="bg" x1="700" y1="0" x2="700" y2="760" gradientUnits="userSpaceOnUse">
      <stop stop-color="#05070D"/>
      <stop offset="1" stop-color="#0A101A"/>
    </linearGradient>
    <linearGradient id="road" x1="700" y1="210" x2="700" y2="760" gradientUnits="userSpaceOnUse">
      <stop stop-color="#0E1724" stop-opacity="0.2"/>
      <stop offset="1" stop-color="#05070D" stop-opacity="0.95"/>
    </linearGradient>
    <linearGradient id="carBody" x1="318" y1="420" x2="1138" y2="420" gradientUnits="userSpaceOnUse">
      <stop stop-color="#0FBF8A"/>
      <stop offset="1" stop-color="#2C79FF"/>
    </linearGradient>
    <linearGradient id="glass" x1="680" y1="312" x2="680" y2="460" gradientUnits="userSpaceOnUse">
      <stop stop-color="#B8D7FF" stop-opacity="0.85"/>
      <stop offset="1" stop-color="#4C6E9C" stop-opacity="0.2"/>
    </linearGradient>
    <radialGradient id="glowLeft" cx="0" cy="0" r="1" gradientUnits="userSpaceOnUse" gradientTransform="translate(200 280) rotate(24) scale(260 220)">
      <stop stop-color="#2166FF" stop-opacity="0.28"/>
      <stop offset="1" stop-color="#2166FF" stop-opacity="0"/>
    </radialGradient>
    <radialGradient id="glowRight" cx="0" cy="0" r="1" gradientUnits="userSpaceOnUse" gradientTransform="translate(1178 244) rotate(-18) scale(260 240)">
      <stop stop-color="#11DDA2" stop-opacity="0.25"/>
      <stop offset="1" stop-color="#11DDA2" stop-opacity="0"/>
    </radialGradient>
    <filter id="carShadow" x="210" y="338" width="1028" height="346" filterUnits="userSpaceOnUse" color-interpolation-filters="sRGB">
      <feFlood flood-opacity="0" result="BackgroundImageFix"/>
      <feBlend mode="normal" in="SourceGraphic" in2="BackgroundImageFix" result="shape"/>
      <feGaussianBlur stdDeviation="34" result="effect1_foregroundBlur"/>
    </filter>
  </defs>

  <rect width="1400" height="760" fill="url(#bg)"/>
  <rect width="1400" height="760" fill="url(#glowLeft)"/>
  <rect width="1400" height="760" fill="url(#glowRight)"/>
  <rect y="210" width="1400" height="550" fill="url(#road)"/>

  <g opacity="0.25">
    <path d="M0 226H1400" stroke="#71829C" stroke-width="2"/>
    <path d="M0 274H1400" stroke="#71829C" stroke-width="1"/>
    <path d="M0 322H1400" stroke="#71829C" stroke-width="1"/>
    <path d="M0 370H1400" stroke="#71829C" stroke-width="1"/>
    <path d="M0 418H1400" stroke="#71829C" stroke-width="1"/>
    <path d="M0 466H1400" stroke="#71829C" stroke-width="1"/>
    <path d="M0 514H1400" stroke="#71829C" stroke-width="1"/>
    <path d="M0 562H1400" stroke="#71829C" stroke-width="1"/>
    <path d="M0 610H1400" stroke="#71829C" stroke-width="1"/>
  </g>

  <g filter="url(#carShadow)" opacity="0.4">
    <ellipse cx="700" cy="542" rx="380" ry="72" fill="#040608"/>
  </g>

  <g>
    <path d="M318 452L372 360C391 328 424 308 460 308H946C983 308 1017 328 1037 361L1086 452C1102 482 1080 518 1047 518H358C325 518 302 482 318 452Z" fill="url(#carBody)"/>
    <path d="M432 336C444 320 463 310 483 310H926C947 310 966 321 977 338L1018 404H390L432 336Z" fill="#0C1320"/>
    <path d="M450 348C458 337 471 330 485 330H923C938 330 951 338 959 350L986 392H423L450 348Z" fill="url(#glass)"/>
    <path d="M390 404H1018V428H390V404Z" fill="#0E1724"/>
    <path d="M394 452H1014" stroke="#8EE8C7" stroke-opacity="0.6" stroke-width="2"/>
    <path d="M506 330V392" stroke="#13263D" stroke-width="14" stroke-linecap="round"/>
    <path d="M896 330V392" stroke="#13263D" stroke-width="14" stroke-linecap="round"/>
    <path d="M650 330V392" stroke="#13263D" stroke-width="10" stroke-linecap="round"/>
    <path d="M754 330V392" stroke="#13263D" stroke-width="10" stroke-linecap="round"/>
  </g>

  <g>
    <circle cx="452" cy="520" r="58" fill="#060A10"/>
    <circle cx="452" cy="520" r="36" fill="#1D2D44"/>
    <circle cx="452" cy="520" r="16" fill="#7CA6DB"/>
    <circle cx="952" cy="520" r="58" fill="#060A10"/>
    <circle cx="952" cy="520" r="36" fill="#1D2D44"/>
    <circle cx="952" cy="520" r="16" fill="#7CA6DB"/>
  </g>

  <g opacity="0.68">
    <path d="M370 472H334" stroke="#95F2D1" stroke-width="10" stroke-linecap="round"/>
    <path d="M1062 472H1026" stroke="#95F2D1" stroke-width="10" stroke-linecap="round"/>
  </g>

  <g opacity="0.7">
    <rect x="198" y="556" width="120" height="6" rx="3" fill="#3A4E68"/>
    <rect x="1082" y="556" width="120" height="6" rx="3" fill="#3A4E68"/>
    <rect x="230" y="590" width="90" height="4" rx="2" fill="#3A4E68"/>
    <rect x="1082" y="590" width="90" height="4" rx="2" fill="#3A4E68"/>
  </g>
</svg>
